<?xml version="1.0" standalone="no"?>
<!DOCTYPE svg PUBLIC "-//W3C//DTD SVG 1.1//EN" "http://www.w3.org/Graphics/SVG/1.1/DTD/svg11.dtd" >
<svg xmlns="http://www.w3.org/2000/svg">
<metadata>Generated by IcoMoon</metadata>
<defs>
<font id="my-icon" horiz-adv-x="1024">
<font-face units-per-em="1024" ascent="960" descent="-64" />
<missing-glyph horiz-adv-x="1024" />
<glyph unicode="&#x20;" horiz-adv-x="512" d="" />
<glyph unicode="&#xe900;" glyph-name="search-user" horiz-adv-x="1033" d="M491.358 133.498q4.081-19.387 13.265-41.835t26.53-45.407 44.896-45.407 68.365-41.835q-27.55-7.143-63.263-11.224-30.611-4.081-74.997-7.143t-102.547-3.061q-29.591 0-67.855 2.041t-79.589 6.122-81.63 9.183-73.977 10.204-56.631 10.714-29.081 10.714q-10.204 8.163-15.816 49.998t4.592 107.139q6.122 37.754 30.611 57.141t56.631 31.121 67.345 21.428 62.753 27.040q21.428 13.265 32.652 25.509t15.816 24.489 4.592 25.509-1.020 28.57q-2.041 24.489-15.816 37.754t-31.121 27.55q-8.163 7.143-14.285 19.897t-11.224 26.019q-5.102 15.306-10.204 31.632-7.143 2.041-14.285 7.143-6.122 5.102-12.755 14.285t-11.734 26.53-3.571 31.121 5.612 24.999q4.081 12.244 12.244 22.448 0 38.774 4.081 77.548 4.081 32.652 14.285 69.895t31.632 66.834q19.387 27.55 42.856 45.407t47.957 28.060 49.488 14.285 47.447 4.081q29.591 0 56.631-7.143t49.998-18.367 41.325-25.509 29.591-28.57q25.509-32.652 38.264-71.936t17.857-73.977q5.102-40.815 4.081-81.63 7.143-5.102 11.224-13.265 4.081-7.143 6.632-18.367t0.51-27.55q-2.041-22.448-8.673-35.203t-14.795-19.897q-9.183-8.163-19.387-11.224-5.102-16.326-10.204-31.632-5.102-13.265-11.224-26.019t-14.285-19.897q-9.183-8.163-14.285-15.816t-8.163-15.816-6.632-17.857-10.714-20.918q-23.469-36.733-36.733-69.385t-18.367-62.753-3.061-58.161 8.163-55.61zM1013.789-3.232q14.285-17.346 15.816-29.591t-9.694-23.469q-6.122-7.143-15.816-7.653t-20.407 3.571-20.407 10.204-16.836 12.244l-71.426 65.304q-28.57-17.346-60.712-24.999t-64.283-5.612-62.753 15.816-55.1 39.284q-28.57 28.57-42.856 64.794t-14.285 73.977 14.285 73.977 42.856 64.794q27.55 28.57 63.263 42.856t72.446 14.285 72.446-14.285 64.283-42.856q24.489-25.509 38.264-57.141t16.326-64.283-5.102-65.304-24.999-60.202l38.774-38.774q15.306-15.306 28.57-29.081t17.346-17.857zM769.92 60.031q26.53 0 49.998 10.204t40.815 28.060 27.55 41.835 10.204 51.529-10.204 51.019-27.55 41.325-40.815 28.060-49.998 10.204-49.998-10.204-40.815-28.060-27.55-41.325-10.204-51.019 10.204-51.529 27.55-41.835 40.815-28.060 49.998-10.204z" />
<glyph unicode="&#xe901;" glyph-name="list-thumbnail" d="M380.928 892.415q26.624 0 45.568-18.944t18.944-45.568v-256q0-26.624-18.944-45.568t-45.568-18.944h-256q-26.624 0-45.056 18.944t-18.432 45.568v256q0 26.624 18.432 45.568t45.056 18.944h256zM380.928 379.391q26.624 0 45.568-18.432t18.944-45.056v-256q0-26.624-18.944-45.568t-45.568-18.944h-256q-26.624 0-45.056 18.944t-18.432 45.568v256q0 26.624 18.432 45.056t45.056 18.432h256zM893.952 892.415q26.624 0 45.056-18.944t18.432-45.568v-256q0-26.624-18.432-45.568t-45.056-18.944h-256q-26.624 0-45.568 18.944t-18.944 45.568v256q0 26.624 18.944 45.568t45.568 18.944h256zM893.952 379.391q26.624 0 45.056-18.432t18.432-45.056v-256q0-26.624-18.432-45.568t-45.056-18.944h-256q-26.624 0-45.568 18.944t-18.944 45.568v256q0 26.624 18.944 45.056t45.568 18.432h256z" />
<glyph unicode="&#xe902;" glyph-name="geo" d="M866.784 767.691l-37.391-39.964c33.655-55.787 53.021-121.166 53.021-191.071 0-94.348-35.271-180.457-93.348-245.858l0.684 0.013-9.771-9.881c-3.036-3.18-6.128-6.307-9.274-9.379l-139.687-141.264c0.065 0.019 0.128 0.040 0.192 0.058l-119.209-119.904-268.903 271.461c-62.92 66.391-101.518 156.063-101.518 254.755 0 204.581 165.839 370.416 370.416 370.416 71.049 0 137.421-20.005 193.799-54.683l36.807 39.339c-66.345 43.179-145.542 68.272-230.606 68.272-233.794 0-423.326-189.542-423.326-423.344 0-109.117 41.296-208.578 109.095-283.642 0.916-1.285 1.959-2.51 3.142-3.653l3.632-3.668c4.471-4.724 9.045-9.35 13.728-13.863l243.991-246.399c0.546-0.527 1.114-1.020 1.694-1.492l47.946-47.939 45.579 45.579c1.29 0.867 2.523 1.849 3.673 2.96l261.351 263.93c1.469 1.417 2.725 2.961 3.783 4.592 67.774 75.058 109.050 174.501 109.050 283.594-0.001 85.245-25.2 164.602-68.549 231.037zM370.879 554.294c0-77.936 63.179-141.109 141.109-141.109 77.936 0 141.119 63.173 141.119 141.109 0 77.933-63.183 141.112-141.119 141.112-77.929 0-141.109-63.18-141.109-141.112zM600.197 554.294c0-48.705-39.494-88.191-88.202-88.191-48.712 0-88.199 39.487-88.199 88.191 0 48.712 39.487 88.195 88.199 88.195 48.708 0 88.202-39.483 88.202-88.195z" />
<glyph unicode="&#xe903;" glyph-name="send" d="M0-64.001l106.496 474.112 588.8 36.864-588.8 39.936-106.496 473.088 1024-512z" />
<glyph unicode="&#xe904;" glyph-name="zoom-out" horiz-adv-x="1028" d="M395.731 388.802l10.182-10.182q4.073-4.073 8.145-7.636t8.145-7.636l12.218-12.218q20.364-20.364 16.291-35.636t-25.454-35.636q-9.164-10.182-30.036-31.054t-44.8-45.309-46.327-46.836-34.618-35.636q-18.327-18.327-25.454-32.073t6.109-26.982q9.164-9.164 23.418-24.436t24.436-25.454q17.309-17.309 12.727-30.545t-30.036-15.273q-26.473-3.055-59.054-7.127t-67.2-7.636-67.709-7.636-60.581-7.127q-26.473-3.055-36.654 6.618t-8.145 34.109q2.036 25.454 5.6 57.018t7.636 64.654 7.636 65.672 6.618 60.072q3.055 29.527 16.8 37.673t31.054-9.164q10.182-10.182 26.473-24.945t27.491-25.963 21.382-7.127 23.418 16.291q13.236 13.236 36.145 36.654t47.854 48.363 48.363 48.872 37.673 38.182q6.109 6.109 13.745 11.709t16.8 7.636 18.836-1.018 20.873-13.236zM910.928 901.963q26.473 3.055 36.654-6.618t8.145-34.109q-2.036-25.454-5.6-57.018t-7.636-64.654-7.636-66.181-6.618-60.581q-3.055-29.527-16.8-37.163t-31.054 9.673q-10.182 10.182-28 26.473t-29.018 27.491-19.345 9.673-20.364-13.745q-14.254-14.254-37.163-37.673t-48.363-49.382-49.891-50.4l-37.673-37.673q-6.109-6.109-13.236-12.218t-15.782-9.164-18.327-1.018-19.854 13.236l-38.691 38.691q-20.364 20.364-17.818 37.163t22.909 37.163q9.164 9.164 30.545 31.054t45.818 46.327 47.345 47.854 36.145 35.636q18.327 18.327 22.909 30.036t-8.654 24.945q-9.164 9.164-21.891 22.4t-22.909 23.418q-17.309 17.309-12.727 30.545t30.036 16.291 58.545 7.127 67.709 7.636 67.709 7.636 60.581 7.127z" />
<glyph unicode="&#xe905;" glyph-name="annex" d="M924.672 833.023q36.864-36.864 54.784-82.432t17.92-93.696-17.92-93.696-54.784-82.432l-392.192-389.12q-36.864-36.864-90.624-61.44t-113.664-28.672-122.368 16.384-115.712 73.728q-52.224 52.224-72.704 113.152t-16.384 121.344 28.16 113.664 60.928 90.112l348.16 345.088q9.216 9.216 27.136 4.608t27.136-13.824q8.192-9.216 13.312-27.136t-4.096-27.136l-347.136-344.064q-27.648-27.648-46.080-64.512t-21.504-78.848 12.288-84.992 55.296-82.944q35.84-35.84 79.36-50.688t86.528-12.288 81.92 18.944 66.56 44.032l391.168 388.096q27.648 27.648 39.424 57.344t11.264 58.88-13.824 56.832-36.864 51.2q-44.032 43.008-98.816 40.448t-110.080-57.856l-353.28-351.232q-23.552-23.552-23.040-52.224t18.944-47.104q22.528-22.528 51.712-18.432t47.616 22.528l320.512 318.464q9.216 9.216 27.136 4.608t27.136-13.824 14.336-27.136-4.096-27.136l-321.536-318.464q-36.864-36.864-70.656-51.2t-63.488-12.8-55.296 15.872-47.104 34.816q-17.408 16.384-31.232 41.984t-15.872 56.32 10.752 65.536 49.664 70.656q18.432 18.432 32.768 33.792 12.288 13.312 23.040 23.552t11.776 11.264l285.696 284.672q36.864 36.864 80.384 57.856t88.576 24.064 88.576-12.288 80.384-52.224z" />
<glyph unicode="&#xe906;" glyph-name="friends" d="M463.659 312.142q-2.028-11.152-5.069-17.236t-14.194-13.18q-26.36-16.222-56.776-26.36t-58.297-22.305-48.665-31.937-25.853-56.269q-2.028-11.152-2.535-21.798t-1.521-19.77q-1.014-2.028-2.028-3.549t-2.028-3.549q-39.541 3.042-80.095 7.097t-74.519 9.125-57.283 10.139-29.402 10.139q-9.125 7.097-13.687 42.582t3.549 92.261q5.069 31.43 25.853 48.158t49.172 26.36 58.297 17.743 53.228 22.305q18.25 12.166 27.881 22.305t13.687 20.784 4.055 21.798-1.014 24.333q-2.028 20.277-13.687 31.937t-25.853 23.826q-8.111 5.069-13.687 16.222t-9.632 22.305q-4.055 12.166-8.111 27.374-6.083 2.028-12.166 6.083-5.069 4.055-10.646 12.166t-10.646 22.305-4.055 26.867 5.069 21.798q4.055 11.152 11.152 18.25-1.014 32.444 3.042 65.901 4.055 27.374 13.18 58.804t27.374 56.776q16.222 24.333 36.499 39.541t41.061 23.826 42.075 11.659 41.568 3.042q50.693 0 91.248-21.291t60.832-45.624q13.18-17.236 16.729-31.937t9.632-33.964q-19.263-11.152-41.061-32.95t-38.020-44.103q-20.277-28.388-30.416-62.859t-15.208-63.873q-5.069-35.485-5.069-70.97-8.111-9.125-12.166-20.277-4.055-10.139-5.069-23.826t4.055-29.909q5.069-17.236 11.152-26.36t11.152-14.194q6.083-6.083 12.166-8.111 4.055-16.222 8.111-30.416 4.055-12.166 9.632-24.84t13.687-18.756q7.097-6.083 11.152-10.139t6.59-7.604 3.042-9.632 2.535-16.222zM1004.047 125.591q4.055-14.194 6.59-34.471t2.535-41.061-3.042-39.034-9.125-27.374q-4.055-6.083-23.826-12.166t-49.172-11.152-64.887-9.632-71.477-7.604-69.45-5.069-58.804-2.028-58.297 2.028-68.436 5.069-69.956 6.59-63.366 8.111-48.665 9.125-24.84 8.618q-8.111 7.097-13.18 42.582t3.042 91.248q5.069 32.444 25.853 48.665t49.172 26.36 58.297 17.743 53.228 22.812q18.25 12.166 27.881 22.305t14.194 20.277 4.562 21.291-1.014 25.347q-2.028 20.277-14.194 31.937t-26.36 22.812q-7.097 6.083-12.673 17.236t-9.632 22.305q-4.055 12.166-8.111 27.374-6.083 2.028-12.166 6.083-5.069 4.055-10.646 12.166t-10.646 22.305-4.055 26.867 5.069 20.784q4.055 10.139 11.152 18.25-1.014 32.444 3.042 65.901 4.055 28.388 12.673 59.311t26.867 57.283q16.222 24.333 36.499 39.541t41.568 23.826 42.582 11.659 40.554 3.042q51.707 0 92.261-21.291t59.818-45.624q22.305-27.374 32.95-61.339t15.715-63.366q5.069-34.471 4.055-68.943 5.069-4.055 9.125-11.152 3.042-6.083 5.576-15.715t0.507-23.826q-2.028-18.25-8.111-29.402t-12.166-17.236q-7.097-7.097-16.222-9.125-4.055-15.208-8.111-27.374-4.055-11.152-10.139-22.305t-13.18-16.222q-8.111-7.097-14.701-12.166t-11.659-10.646-8.618-12.673-5.576-17.236q-2.028-13.18-1.521-26.867t6.59-26.867 19.77-25.347 38.020-21.291q21.291-9.125 47.145-15.715t49.679-15.715 42.582-23.319 26.867-36.499z" />
<glyph unicode="&#xe907;" glyph-name="plus" d="M925.696 575.999q19.456 0 37.376-7.68t30.72-20.48 20.48-30.72 7.68-37.376q0-20.48-7.68-37.888t-20.48-30.208-30.72-20.48-37.376-7.68h-287.744v-287.744q0-20.48-7.68-37.888t-20.48-30.208-30.72-20.48-37.376-7.68q-20.48 0-37.888 7.68t-30.208 20.48-20.48 30.208-7.68 37.888v287.744h-287.744q-20.48 0-37.888 7.68t-30.208 20.48-20.48 30.208-7.68 37.888q0 19.456 7.68 37.376t20.48 30.72 30.208 20.48 37.888 7.68h287.744v287.744q0 19.456 7.68 37.376t20.48 30.72 30.208 20.48 37.888 7.68q39.936 0 68.096-28.16t28.16-68.096v-287.744h287.744z" />
<glyph unicode="&#xe908;" glyph-name="list" d="M187.392 889.343q28.672 0 48.64-19.456t19.968-48.128v-52.224q0-28.672-19.968-48.64t-48.64-19.968h-54.272q-27.648 0-47.616 19.968t-19.968 48.64v52.224q0 28.672 19.968 48.128t47.616 19.456h54.272zM889.856 889.343q27.648 0 47.616-19.456t19.968-48.128v-52.224q0-28.672-19.968-48.64t-47.616-19.968h-437.248q-28.672 0-48.64 19.968t-19.968 48.64v52.224q0 28.672 19.968 48.128t48.64 19.456h437.248zM187.392 570.879q28.672 0 48.64-19.968t19.968-48.64v-52.224q0-27.648-19.968-47.616t-48.64-19.968h-54.272q-27.648 0-47.616 19.968t-19.968 47.616v52.224q0 28.672 19.968 48.64t47.616 19.968h54.272zM889.856 570.879q27.648 0 47.616-19.968t19.968-48.64v-52.224q0-27.648-19.968-47.616t-47.616-19.968h-437.248q-28.672 0-48.64 19.968t-19.968 47.616v52.224q0 28.672 19.968 48.64t48.64 19.968h437.248zM187.392 251.391q28.672 0 48.64-19.968t19.968-47.616v-52.224q0-28.672-19.968-48.64t-48.64-19.968h-54.272q-27.648 0-47.616 19.968t-19.968 48.64v52.224q0 27.648 19.968 47.616t47.616 19.968h54.272zM889.856 251.391q27.648 0 47.616-19.968t19.968-47.616v-52.224q0-28.672-19.968-48.64t-47.616-19.968h-437.248q-28.672 0-48.64 19.968t-19.968 48.64v52.224q0 27.648 19.968 47.616t48.64 19.968h437.248z" />
<glyph unicode="&#xe909;" glyph-name="more" d="M150.528 528.895q37.888 0 58.368-24.064t20.48-51.712v-11.264q0-34.816-17.92-58.88t-59.904-24.064h-7.168q-38.912 0-61.952 21.504t-23.040 59.392v14.336q0 13.312 5.632 26.624t15.872 24.064 25.6 17.408 33.792 6.656h10.24zM519.168 528.895q37.888 0 58.368-24.064t20.48-51.712v-11.264q0-34.816-17.92-58.88t-59.904-24.064h-7.168q-38.912 0-61.952 21.504t-23.040 59.392v14.336q0 13.312 5.632 26.624t15.872 24.064 25.6 17.408 33.792 6.656h10.24zM887.808 528.895q37.888 0 58.368-24.064t20.48-51.712v-11.264q0-34.816-17.92-58.88t-59.904-24.064h-7.168q-38.912 0-61.952 21.504t-23.040 59.392v14.336q0 13.312 5.632 26.624t15.872 24.064 25.6 17.408 33.792 6.656h10.24z" />
<glyph unicode="&#xe90a;" glyph-name="rise" d="M600.615 231.451l-3.256 6.895-177.374 207.522-164.090-139.323v186.797l184.846 162.669 5.687-7.356 166.34-194.62 196.961 206.306-106.195 104.8 316.998 2.482v-315.335l-107.013 105.619-312.903-326.459zM191.936 191.569h735.597c52.982 0 95.948-42.946 95.948-95.941s-42.966-95.948-95.948-95.948h-831.544c-52.995 0-95.948 42.952-95.948 95.948v639.649c0 52.994 42.952 95.948 95.948 95.948s95.948-42.952 95.948-95.948v-479.731h3.896l-3.896-3.308v-60.671z" />
<glyph unicode="&#xe90b;" glyph-name="del" d="M658.276 192.005v493.699h329.126v54.855h-329.126v18.281c0 80.787-65.493 146.284-146.276 146.284-80.79 0-146.276-65.497-146.276-146.284v-18.281h-329.127v-54.855h109.695v-694.83h731.408v548.55h-54.855v-493.695h-621.69v639.975h164.569v-493.699h54.848v493.699h182.85v-493.699h54.854zM420.571 740.559v18.281c0 50.492 40.933 91.421 91.429 91.421 50.489 0 91.421-40.929 91.421-91.421v-18.281h-182.85z" />
<glyph unicode="&#xe90c;" glyph-name="setting" d="M1016.832 353.791q2.048-12.288-1.024-29.696t-10.24-35.328-17.408-32.256-22.528-20.48-21.504-6.144-20.48 4.096q-10.24 3.072-25.6 5.632t-31.232 1.024-31.744-6.656-27.136-17.408q-24.576-25.6-28.672-58.368t9.216-62.464q10.24-20.48-3.072-40.96-6.144-8.192-19.456-16.896t-29.184-15.872-33.28-11.264-30.72-4.096q-9.216 0-17.408 7.168t-11.264 15.36h-1.024q-11.264 31.744-38.4 54.784t-62.976 23.040q-34.816 0-62.976-23.040t-39.424-53.76q-5.12-12.288-15.36-17.92t-22.528-5.632q-14.336 0-32.256 5.12t-35.84 12.8-32.256 17.92-21.504 20.48q-5.12 7.168-5.632 16.896t7.68 27.136q11.264 23.552 8.704 53.76t-26.112 55.808q-14.336 15.36-34.816 19.968t-38.912 3.584q-21.504-1.024-44.032-8.192-14.336-4.096-28.672 2.048-11.264 4.096-20.992 18.944t-17.408 32.768-11.776 36.864-2.048 31.232q3.072 22.528 20.48 28.672 30.72 12.288 55.296 40.448t24.576 62.976q0 35.84-24.576 62.464t-55.296 38.912q-9.216 3.072-15.36 14.848t-6.144 24.064q0 13.312 4.096 29.696t10.752 31.744 15.36 28.16 18.944 18.944q8.192 5.12 15.872 4.096t16.896-4.096q30.72-12.288 64-7.68t58.88 29.184q12.288 12.288 17.92 30.208t7.168 35.328 0 31.744-2.56 20.48q-2.048 6.144-3.584 14.336t1.536 14.336q6.144 14.336 22.016 25.088t34.304 17.92 35.84 10.752 27.648 3.584q13.312 0 20.992-8.704t10.752-17.92q11.264-27.648 36.864-48.64t60.416-20.992q35.84 0 63.488 19.968t38.912 50.688q4.096 8.192 12.8 16.896t17.92 8.704q14.336 0 31.232-4.096t33.28-11.264 30.208-18.432 22.016-24.576q5.12-8.192 3.072-17.92t-4.096-13.824q-13.312-29.696-8.192-62.464t29.696-57.344 60.416-27.136 66.56 11.776q8.192 5.12 19.968 4.096t19.968-9.216q15.36-14.336 27.136-43.52t15.872-58.88q2.048-17.408-5.632-27.136t-15.872-12.8q-31.744-11.264-54.272-39.424t-22.528-64q0-34.816 18.944-60.928t49.664-37.376q7.168-4.096 12.288-8.192 11.264-9.216 15.36-23.552zM540.672 261.631q46.080 0 87.040 17.408t71.168 48.128 47.616 71.168 17.408 86.528-17.408 86.528-47.616 70.656-71.168 47.616-87.040 17.408-86.528-17.408-70.656-47.616-47.616-70.656-17.408-86.528 17.408-86.528 47.616-71.168 70.656-48.128 86.528-17.408z" />
<glyph unicode="&#xe90d;" glyph-name="home" horiz-adv-x="1199" d="M599.883 923.514l-585.486-585.548h237.705v-383.981h222.536c38.058 82.685 101.058 151.528 179.387 196.926-0.271 17.364-0.421 36.896-0.135 62.399-90.197-44.913-164.727-116.515-213.205-204.477h-133.728v383.988h-163.318l455.873 455.873 455.879-455.873h-163.317v-383.989h-146.284v-54.848h201.139v383.982h237.705l-584.751 585.548z" />
<glyph unicode="&#xe90e;" glyph-name="refresh" d="M684.032 556.543q-17.408 8.192-15.872 22.016t11.776 22.016q3.072 2.048 19.968 15.872t41.472 33.28q-43.008 49.152-102.4 77.312t-129.024 28.16q-64.512 0-120.832-24.064t-98.304-66.048-66.048-98.304-24.064-120.832q0-63.488 24.064-119.808t66.048-98.304 98.304-66.048 120.832-24.064q53.248 0 100.864 16.896t87.040 47.616 67.584 72.192 41.472 90.624q7.168 23.552 26.624 38.912t46.080 15.36q31.744 0 53.76-22.528t22.016-53.248q0-14.336-5.12-27.648-21.504-71.68-63.488-132.096t-99.84-103.936-128.512-68.096-148.48-24.576q-95.232 0-179.2 35.84t-145.92 98.304-98.304 145.92-36.352 178.688 36.352 179.2 98.304 145.92 145.92 98.304 179.2 36.352q105.472 0 195.584-43.52t153.6-118.272q23.552 17.408 39.424 30.208t19.968 15.872q6.144 5.12 13.312 7.68t13.312 0 10.752-10.752 6.656-24.576q1.024-9.216 2.048-31.232t2.048-51.2 1.024-60.416-1.024-58.88q-1.024-34.816-16.384-50.176-8.192-8.192-24.576-9.216t-34.816 3.072q-27.648 6.144-60.928 13.312t-63.488 14.848-53.248 14.336-29.184 9.728z" />
<glyph unicode="&#xe90f;" glyph-name="zoom-in" horiz-adv-x="1038" d="M445.411 420.503q25.974 2.886 36.556-7.696t8.658-35.594q-1.924-25.974-5.772-58.683t-8.177-66.86-8.177-67.822-6.734-62.531q-2.886-30.784-17.316-38.961t-31.746 10.101q-10.582 10.582-26.936 25.974t-27.898 25.974q-12.506 12.506-23.088 8.658t-24.050-17.316q-14.43-14.43-37.999-38.48t-49.063-50.025-49.544-50.506-39.442-38.961q-5.772-6.734-13.949-12.506t-17.316-8.177-19.24 0.481-21.645 14.43q-6.734 6.734-11.063 10.582t-8.177 7.696l-21.164 21.164q-21.164 21.164-16.835 36.556t25.493 37.518q9.62 9.62 31.746 31.265t46.658 46.658 47.62 48.582 36.556 37.037q19.24 19.24 25.974 33.189t-6.734 27.417q-9.62 9.62-24.050 25.493t-25.012 26.455q-17.316 17.316-12.987 31.265t31.265 16.835 60.607 7.215 69.265 8.177 70.227 8.177 63.493 7.215zM1018.77 906.319q21.164-21.164 18.759-37.999t-24.531-38.961q-10.582-10.582-32.227-32.708t-47.139-47.62-49.063-49.544-37.037-37.518q-19.24-19.24-23.569-30.784t9.139-25.012q9.62-9.62 22.607-23.569t23.569-24.531q17.316-17.316 12.506-31.265t-30.784-16.835q-26.936-2.886-60.607-7.215t-69.746-8.177-70.708-8.177-62.531-7.215q-50.025-5.772-46.177 42.329 2.886 25.974 6.253 58.683t7.696 67.341 8.177 68.303 6.734 62.531q2.886 30.784 17.316 38.961t32.708-10.101q4.81-5.772 12.506-12.987t15.873-14.911 15.873-14.911 13.468-12.987q12.506-12.506 20.202-11.063t21.164 14.911q14.43 14.43 38.48 38.961t50.506 50.987 50.987 51.468 39.923 40.404q5.772 5.772 13.468 12.025t16.354 9.139 18.278 0.962 21.164-13.468q6.734-6.734 11.063-10.582t8.177-7.696l8.658-8.658z" />
<glyph unicode="&#xe910;" glyph-name="graphic-detail" d="M259.072 656.895q30.72 0 52.736-22.016t22.016-53.76q0-30.72-22.016-52.736t-52.736-22.016q-31.744 0-53.248 22.016t-21.504 52.736q0 31.744 21.504 53.76t53.248 22.016zM864.256 902.655q43.008 0 69.12-28.672t26.112-65.536v-550.912q0-23.552-16.896-39.936t-40.448-16.384h-70.656v123.904h44.032q11.264 0 19.456 8.192t8.192 20.48q0 11.264-8.192 19.456t-19.456 8.192h-44.032v79.872h44.032q11.264 0 19.456 8.192t8.192 19.456-8.192 19.968-19.456 8.704h-44.032v72.704h44.032q11.264 0 19.456 8.192t8.192 20.48q0 11.264-8.192 19.456t-19.456 8.192h-44.032v86.016q0 57.344-26.624 80.896t-90.112 23.552h-394.24v9.216q0 23.552 16.896 39.936t40.448 16.384h486.4zM692.224 775.679q39.936 0 57.856-23.040t17.92-59.904v-565.248q0-23.552-19.456-43.52t-48.128-19.968h-572.416q-24.576 0-44.032 20.48t-19.456 48.128v575.488q0 29.696 16.384 48.64t43.008 18.944h568.32zM703.488 668.159q0 17.408-10.752 30.208t-34.304 12.8h-488.448q-4.096 0-11.264-1.536t-14.336-5.12-12.288-9.728-5.12-15.36v-274.432q8.192-9.216 23.040-22.016t34.816-23.552 44.544-18.432 53.248-7.68q43.008 0 75.264 13.824t59.904 34.816 54.272 45.056 58.88 45.568 73.728 36.352 98.816 16.896v142.336z" />
<glyph unicode="&#xe911;" glyph-name="stop" horiz-adv-x="1048" d="M359.966 159.529l456.035 257.15 35.089 22.937-35.725 21.891-455.856 258.567 0.38-71.14v-442.83l0.077-46.575zM414.601 624.407l319.172-185.56-319.172-185.563v371.123zM524.275 959.981c-282.759 0-511.987-229.228-511.987-511.987 0-112.735 36.44-216.959 98.182-301.539l38.668 40.257c-51.68 74.056-81.995 164.127-81.995 261.282 0 252.465 204.668 457.132 457.132 457.132 252.454 0 457.121-204.668 457.121-457.132 0-252.461-204.668-457.118-457.121-457.118-96.24 0-185.531 29.744-259.19 80.534l-34.539-42.798c83.151-58.344 184.439-92.595 293.729-92.595 282.756 0 511.984 229.221 511.984 511.976-0.001 282.76-229.229 511.988-511.984 511.988z" />
<glyph unicode="&#xe912;" glyph-name="eidt" d="M943.104 743.935q-8.192-9.216-15.36-16.384l-12.288-12.288q-6.144-6.144-11.264-10.24l-138.24 139.264q8.192 8.192 20.48 19.456t20.48 17.408q20.48 16.384 44.032 14.336t37.888-9.216q15.36-8.192 34.304-28.672t29.184-43.008q5.12-14.336 6.656-33.792t-15.872-36.864zM551.936 630.271l158.72 158.72 138.24-138.24q-87.040-87.040-158.72-157.696-30.72-29.696-59.904-58.88t-53.248-52.224-39.424-38.4l-18.432-18.432q-7.168-7.168-16.384-14.336t-20.48-12.288-31.232-12.288-41.472-13.824-40.96-12.288-29.696-6.656q-19.456-2.048-20.992 3.584t1.536 25.088q1.024 10.24 5.12 30.208t8.192 40.448 8.704 38.4 7.68 25.088q5.12 11.264 10.752 19.456t15.872 18.432zM899.072 481.791q21.504 0 40.96-10.24t19.456-41.984v-232.448q0-28.672-10.752-52.736t-29.184-41.984-41.984-27.648-48.128-9.728h-571.392q-24.576 0-48.128 10.752t-41.472 29.184-29.184 43.52-11.264 53.76v570.368q0 20.48 11.264 42.496t29.184 39.936 40.448 29.696 45.056 11.776h238.592q28.672 0 40.448-20.992t11.776-42.496-11.776-41.472-40.448-19.968h-187.392q-21.504 0-34.816-14.848t-13.312-36.352v-481.28q0-20.48 13.312-34.304t34.816-13.824h474.112q21.504 0 36.864 13.824t15.36 34.304v190.464q0 14.336 6.656 24.576t16.384 16.384 21.504 8.704 23.040 2.56z" />
<glyph unicode="&#xe913;" glyph-name="v-up" d="M838.116 227.22l39.584 39.584-365.721 365.646-365.679-365.646 39.583-39.584 326.12 326.127z" />
<glyph unicode="&#xe914;" glyph-name="v-down" d="M185.884 632.449l-39.584-39.583 365.721-365.646 365.679 365.646-39.583 39.583-326.12-326.126z" />
<glyph unicode="&#xe915;" glyph-name="msg" horiz-adv-x="1025" d="M896.379-64.001h-768.325c-70.724 0-128.054 57.33-128.054 128.054v704.298c0 70.724 57.33 128.054 128.054 128.054h768.324c70.724 0 128.054-57.33 128.054-128.054v-704.297c0.001-70.725-57.329-128.055-128.053-128.055zM192.081 64.053h640.27c35.362 0 64.027 28.665 64.027 64.027v492.131c-128.38-128.38-293.615-293.615-293.615-293.615-50.011-50.005-131.089-50.005-181.094 0 0 0-165.247 165.241-293.615 293.615v-492.131c0-35.362 28.665-64.027 64.027-64.027zM192.081 768.351c-9.13 0-17.729-2.036-25.592-5.481l300.453-300.453c25.003-25.003 65.544-25.003 90.547 0l300.453 300.453c-7.863 3.445-16.461 5.481-25.592 5.481h-640.269z" />
<glyph unicode="&#xe916;" glyph-name="select-square" d="M1007.616 836.095q9.216-8.192 13.312-24.576t2.56-35.84-8.704-37.888-19.456-31.744q-31.744-32.768-72.192-73.216t-86.528-85.504v-355.328q0-26.624-10.24-49.664t-27.648-40.448-40.448-27.648-49.664-10.24h-513.024q-26.624 0-49.664 10.24t-40.448 27.648-27.648 40.448-10.24 49.664v513.024q0 26.624 10.24 49.664t27.648 40.448 40.448 27.648 49.664 10.24h513.024q11.264 0 21.504-2.048t20.48-5.12l-106.496-120.832h-448.512v-179.2q29.696-11.264 58.368-35.84 25.6-20.48 52.224-48.64t50.176-46.592q20.48-17.408 44.032-13.824t47.104 25.088q20.48 18.432 52.736 49.664t71.168 69.632 81.408 80.384 82.944 82.432 75.264 75.776 59.392 59.904q35.84 35.84 73.728 35.84t63.488-23.552zM195.584 191.999h131.072q-24.576 5.12-46.592 15.36t-40.448 27.648q-26.624 24.576-44.032 40.96v-83.968zM708.608 421.375q-52.224-51.2-99.328-96.768t-80.896-79.36q-20.48-20.48-47.616-33.792t-58.88-19.456h286.72v229.376z" />
<glyph unicode="&#xe917;" glyph-name="upload" d="M1024 266.751q0-25.6-8.704-48.128t-24.576-40.448-36.864-30.208-45.568-16.384l1.024-1.024h-701.44q-5.12-1.024-16.384-1.024-39.936 0-74.752 15.36t-60.928 41.472-40.96 60.928-14.848 74.752 14.848 74.752 40.96 60.928 60.928 41.472 74.752 15.36h1.024q-1.024 8.192-1.024 15.36v16.384q0 72.704 27.648 137.216t75.776 112.128 112.128 75.264 136.704 27.648 137.216-27.648 112.64-75.264 75.776-112.128 27.648-137.216q0-37.888-8.192-74.24t-22.528-69.12q5.12 1.024 10.752 1.536t10.752 0.512q27.648 0 52.736-10.752t43.52-29.696 29.184-44.032 10.752-53.76zM665.6 388.607q20.48 0 26.624 4.608t-8.192 22.016q-14.336 18.432-31.744 48.128t-36.352 60.416-38.4 57.344-37.888 38.912q-18.432 13.312-27.136 14.336t-25.088-12.288q-18.432-15.36-35.84-38.912t-35.328-50.176-35.84-52.224-36.352-45.056q-18.432-18.432-13.312-32.768t25.6-14.336h16.384q9.216 0 19.968-0.512t20.992-0.512h17.408q14.336-1.024 18.432-9.728t4.096-24.064q0-17.408-0.512-30.72t-0.512-25.6-0.512-25.6-0.512-30.72q0-7.168 1.536-15.36t5.632-15.36 12.288-11.776 21.504-4.608h23.552q9.216 0 27.648-1.024 24.576 0 28.16 12.288t3.584 38.912q0 23.552 0.512 42.496t0.512 51.712q0 23.552 4.608 36.352t19.968 12.8q11.264 0 32.256 0.512t32.256 0.512z" />
<glyph unicode="&#xe918;" glyph-name="download" d="M1024 211.455q0-25.6-8.704-48.128t-24.064-40.96-36.352-30.208-45.568-15.872v-2.048h-687.104q-2.048 0-2.56-0.512t-2.56-0.512-3.072 0.512-3.072 0.512h-6.144v1.024q-43.008 2.048-80.384 19.456t-65.024 46.592-43.52 67.584-15.872 81.408 15.872 80.896 43.008 66.56 63.488 47.104 78.336 21.504q7.168 66.56 36.864 124.416t76.288 100.864 107.008 67.584 129.024 24.576q72.704 0 137.216-27.648t112.128-75.776 75.264-112.128 27.648-136.704q0-32.768-6.144-64t-17.408-59.904q2.048 0 4.608 0.512t4.608 0.512q28.672 0 53.248-10.752t43.008-29.184 29.184-43.52 10.752-53.76zM687.104 363.007q12.288 20.48 7.168 23.552t-25.6 3.072q-12.288 0-34.304 0.512t-33.28 0.512q-16.384 0-20.992 13.312t-4.608 36.864q0 32.768-0.512 52.736t-0.512 43.52q0 26.624-3.584 38.912t-29.184 12.288q-18.432 0-27.648-0.512t-25.6-0.512q-27.648 0-34.304-15.872t-6.656-31.232v-32.768q0-13.312 0.512-25.6t0.512-25.6v-29.696q0-16.384-4.096-25.088t-19.456-8.704q-6.144-1.024-16.896-1.536t-22.016-1.024-21.504-0.512h-16.384q-21.504 0-25.6-13.312t13.312-33.792q17.408-21.504 37.376-46.592t39.424-50.688 37.376-49.664 33.28-41.472q27.648-30.72 53.248 1.024 15.36 17.408 35.84 45.056t41.984 57.856 40.96 58.368 31.744 46.592z" />
<glyph unicode="&#xe919;" glyph-name="select-circle" d="M514.048 900.607q93.184 0 174.592-35.328t142.336-96.768 96.256-143.36 35.328-175.104-35.328-175.616-96.256-143.872-142.336-96.768-174.592-35.328-175.104 35.328-142.848 96.768-96.256 143.872-35.328 175.616 35.328 175.104 96.256 143.36 142.848 96.768 175.104 35.328zM795.648 536.063q18.432 18.432 19.456 45.568t-17.408 45.568-45.056 17.92-45.056-18.944l-288.768-288.768-99.328 98.304q-18.432 18.432-45.056 18.944t-45.056-17.92-18.944-43.52 17.92-43.52l142.336-143.36q18.432-18.432 48.128-17.92t48.128 18.944l-4.096-4.096z" />
<glyph unicode="&#xe91a;" glyph-name="left" d="M729.6 28.8l-416 425.6 416 416c9.6 9.6 9.6 25.6 0 35.2s-25.6 9.6-35.2 0l-432-435.2c-9.6-9.6-9.6-25.6 0-35.2l432-441.6c9.6-9.6 25.6-9.6 35.2 0s9.6 25.6 0 35.2z" />
<glyph unicode="&#xe91b;" glyph-name="search" d="M966.4 35.2l-230.4 227.2c60.8 67.2 96 156.8 96 256 0 217.6-176 390.4-390.4 390.4-217.6 0-390.4-176-390.4-390.4 0-217.6 176-390.4 390.4-390.4 99.2 0 188.8 35.2 256 96l230.4-227.2c9.6-9.6 28.8-9.6 38.4 0 12.8 12.8 12.8 28.8 0 38.4zM102.4 518.4c0 185.6 150.4 339.2 339.2 339.2s339.2-150.4 339.2-339.2c0-89.6-35.2-172.8-92.8-233.6-3.2 0-3.2-3.2-6.4-3.2-3.2-3.2-3.2-3.2-3.2-6.4-60.8-57.6-144-92.8-233.6-92.8-188.8-3.2-342.4 150.4-342.4 336z" />
<glyph unicode="&#xe91c;" glyph-name="talk" d="M883.2 876.8h-742.4c-51.2 0-92.8-41.6-92.8-89.6v-582.4c0-48 41.6-89.6 92.8-89.6h256c0 0 6.4-6.4 16-19.2 3.2-3.2 6.4-6.4 9.6-12.8 0 0 6.4-9.6 9.6-12.8 28.8-44.8 51.2-67.2 86.4-67.2s60.8 22.4 89.6 67.2c22.4 35.2 28.8 44.8 28.8 44.8h249.6c51.2 0 92.8 41.6 92.8 89.6v582.4c-3.2 51.2-44.8 89.6-96 89.6zM931.2 204.8c0-25.6-19.2-44.8-44.8-44.8h-252.8c-6.4 0-9.6 0-16-3.2-9.6-6.4-19.2-12.8-28.8-28.8-3.2-6.4-22.4-35.2-22.4-35.2-19.2-32-35.2-44.8-48-44.8s-25.6 12.8-48 44.8c-3.2 3.2-6.4 12.8-9.6 12.8-3.2 6.4-6.4 9.6-9.6 12.8-19.2 25.6-32 38.4-54.4 38.4h-256c-25.6 0-44.8 19.2-44.8 44.8v582.4c0 25.6 22.4 44.8 48 44.8h742.4c25.6 0 48-19.2 48-44.8v-579.2zM220.8 476.8c0-28.277 22.923-51.2 51.2-51.2s51.2 22.923 51.2 51.2c0 28.277-22.923 51.2-51.2 51.2s-51.2-22.923-51.2-51.2zM460.8 476.8c0-28.277 22.923-51.2 51.2-51.2s51.2 22.923 51.2 51.2c0 28.277-22.923 51.2-51.2 51.2s-51.2-22.923-51.2-51.2zM697.6 476.8c0-28.277 22.923-51.2 51.2-51.2s51.2 22.923 51.2 51.2c0 28.277-22.923 51.2-51.2 51.2s-51.2-22.923-51.2-51.2z" />
<glyph unicode="&#xe91d;" glyph-name="scan" d="M864 912h-697.6c-48 0-83.2-41.6-83.2-89.6v-208c0-12.8 9.6-25.6 22.4-25.6s22.4 9.6 22.4 25.6v208c0 22.4 16 41.6 38.4 41.6h697.6c22.4 0 38.4-19.2 38.4-41.6v-208c0-12.8 9.6-25.6 22.4-25.6s22.4 9.6 22.4 25.6v208c0 48-38.4 89.6-83.2 89.6zM924.8 278.4c-12.8 0-22.4-9.6-22.4-25.6v-179.2c0-22.4-16-41.6-38.4-41.6h-697.6c-22.4 0-38.4 19.2-38.4 41.6v182.4c0 12.8-9.6 25.6-22.4 25.6s-22.4-9.6-22.4-25.6v-179.2c0-51.2 38.4-89.6 83.2-89.6h697.6c48 0 83.2 41.6 83.2 89.6v179.2c0 12.8-9.6 22.4-22.4 22.4zM921.6 416c12.8 0 22.4 9.6 22.4 22.4s-9.6 22.4-22.4 22.4h-819.2c-12.8 0-22.4-9.6-22.4-22.4s9.6-22.4 22.4-22.4h819.2z" />
<glyph unicode="&#xe91e;" glyph-name="err" d="M547.2 448l416 416c9.6 9.6 9.6 25.6 0 35.2s-25.6 9.6-35.2 0l-416-416-416 416c-9.6 9.6-25.6 9.6-35.2 0s-9.6-25.6 0-35.2l416-416-416-416c-9.6-9.6-9.6-25.6 0-35.2s25.6-9.6 35.2 0l416 416 416-416c9.6-9.6 25.6-9.6 35.2 0s9.6 25.6 0 35.2l-416 416z" />
</font>
</defs>
</svg>
